<svg xmlns="http://www.w3.org/2000/svg" width="1160" height="800" viewBox="0 0 1160 800" font-family="Helvetica, Arial, sans-serif">
  <defs>
    <marker id="arrowTeal" markerWidth="8" markerHeight="8" refX="6" refY="3" orient="auto">
      <path d="M0,0 L7,3 L0,6 Z" fill="#19e3b1"/>
    </marker>
    <marker id="arrowCyan" markerWidth="8" markerHeight="8" refX="6" refY="3" orient="auto">
      <path d="M0,0 L7,3 L0,6 Z" fill="#36c3f2"/>
    </marker>
    <marker id="arrowOrange" markerWidth="8" markerHeight="8" refX="6" refY="3" orient="auto">
      <path d="M0,0 L7,3 L0,6 Z" fill="#e8a14b"/>
    </marker>
    <marker id="arrowRed" markerWidth="8" markerHeight="8" refX="6" refY="3" orient="auto">
      <path d="M0,0 L7,3 L0,6 Z" fill="#ff6b6b"/>
    </marker>
  </defs>

  <rect width="1160" height="800" fill="#0a1422"/>

  <!-- ============ NUCLEO ============ -->
  <rect x="320" y="18" width="460" height="500" rx="14" fill="#0f1f33" stroke="#23496e" stroke-width="1.4"/>
  <text x="550" y="46" text-anchor="middle" fill="#ffffff" font-size="17" font-weight="bold" letter-spacing="4">NÚCLEO VELLUM</text>
  <text x="550" y="64" text-anchor="middle" fill="#7d93ad" font-size="10.5">Control plane de la IA corporativa</text>

  <!-- FRONTEND -->
  <rect x="360" y="80" width="380" height="50" rx="7" fill="#13283f" stroke="#3b5d80" stroke-width="1.2"/>
  <text x="550" y="100" text-anchor="middle" fill="#ffffff" font-size="13" font-weight="bold">FRONTEND · Angular SPA</text>
  <text x="550" y="118" text-anchor="middle" fill="#8fa6bd" font-size="9.5">RBAC en UI · Gestión de prompts · Métricas y auditoría</text>

  <line x1="550" y1="130" x2="550" y2="148" stroke="#19e3b1" stroke-width="1.6" marker-end="url(#arrowTeal)"/>

  <!-- GATEWAY -->
  <rect x="360" y="150" width="380" height="48" rx="7" fill="#13283f" stroke="#3b5d80" stroke-width="1.2"/>
  <text x="550" y="169" text-anchor="middle" fill="#ffffff" font-size="13" font-weight="bold">API GATEWAY</text>
  <text x="550" y="186" text-anchor="middle" fill="#8fa6bd" font-size="9.5">TLS · Rate limiting perimetral · Routing · Autenticación</text>

  <line x1="550" y1="198" x2="550" y2="216" stroke="#19e3b1" stroke-width="1.6" marker-end="url(#arrowTeal)"/>

  <!-- BACKEND -->
  <rect x="345" y="218" width="410" height="128" rx="8" fill="#13283f" stroke="#3b5d80" stroke-width="1.2"/>
  <text x="550" y="240" text-anchor="middle" fill="#ffffff" font-size="13" font-weight="bold">BACKEND · FastAPI (stateless)</text>
  <g font-size="10" fill="#cfe0ef" text-anchor="middle">
    <rect x="365" y="254" width="115" height="26" rx="5" fill="#0f2036" stroke="#33567c" stroke-width="1"/>
    <text x="422" y="271">Prompts</text>
    <rect x="492" y="254" width="115" height="26" rx="5" fill="#0f2036" stroke="#33567c" stroke-width="1"/>
    <text x="549" y="271">Versiones</text>
    <rect x="619" y="254" width="115" height="26" rx="5" fill="#0f2036" stroke="#33567c" stroke-width="1"/>
    <text x="676" y="271">Ejecución</text>
    <rect x="365" y="290" width="115" height="26" rx="5" fill="#0f2036" stroke="#33567c" stroke-width="1"/>
    <text x="422" y="307">AuthZ · RBAC</text>
    <rect x="492" y="290" width="115" height="26" rx="5" fill="#0f2036" stroke="#33567c" stroke-width="1"/>
    <text x="549" y="307">Conectores</text>
    <rect x="619" y="290" width="115" height="26" rx="5" fill="#0f2036" stroke="#33567c" stroke-width="1"/>
    <text x="676" y="307">Trazabilidad</text>
  </g>

  <line x1="455" y1="346" x2="455" y2="378" stroke="#19e3b1" stroke-width="1.6" marker-end="url(#arrowTeal)"/>
  <line x1="645" y1="346" x2="645" y2="378" stroke="#19e3b1" stroke-width="1.6" marker-end="url(#arrowTeal)"/>

  <!-- ROUTER-AI -->
  <rect x="360" y="380" width="180" height="62" rx="8" fill="#0d2b2c" stroke="#19e3b1" stroke-width="1.6"/>
  <text x="450" y="402" text-anchor="middle" fill="#19e3b1" font-size="13" font-weight="bold">ROUTER-AI</text>
  <text x="450" y="417" text-anchor="middle" fill="#9fc4bd" font-size="9">Abstracción de proveedores LLM</text>
  <text x="450" y="431" text-anchor="middle" fill="#e9fef8" font-size="9" font-weight="bold">Sin vendor lock-in · Rate limit RPM/TPM</text>

  <!-- DAL -->
  <rect x="560" y="380" width="180" height="62" rx="8" fill="#0d2b2c" stroke="#19e3b1" stroke-width="1.6"/>
  <text x="650" y="402" text-anchor="middle" fill="#19e3b1" font-size="13" font-weight="bold">DAL · ROUTER-DB</text>
  <text x="650" y="417" text-anchor="middle" fill="#9fc4bd" font-size="9">Abstracción multi-DBMS</text>
  <text x="650" y="431" text-anchor="middle" fill="#e9fef8" font-size="9" font-weight="bold">Datos corporativos gobernados</text>

  <!-- arrows nucleo -> capas -->
  <line x1="450" y1="442" x2="560" y2="540" stroke="#19e3b1" stroke-width="1.6" marker-end="url(#arrowTeal)"/>
  <line x1="650" y1="442" x2="890" y2="540" stroke="#19e3b1" stroke-width="1.6" marker-end="url(#arrowTeal)"/>

  <!-- ============ REDIS (nuevo v3) ============ -->
  <line x1="395" y1="442" x2="280" y2="560" stroke="#ff6b6b" stroke-width="1.6" stroke-dasharray="6 5" marker-end="url(#arrowRed)"/>
  <text x="40" y="496" fill="#ff9b9b" font-size="9.5" font-weight="bold">contadores RPM/TPM</text>
  <text x="40" y="510" fill="#ff9b9b" font-size="9.5">compartidos entre réplicas</text>
  <text x="40" y="524" fill="#ff9b9b" font-size="9.5">(fail-open: si cae → memoria)</text>

  <rect x="160" y="562" width="240" height="92" rx="9" fill="#2a1420" stroke="#ff6b6b" stroke-width="1.8"/>
  <text x="280" y="585" text-anchor="middle" fill="#ff8c8c" font-size="13.5" font-weight="bold">REDIS 7 · desplegado</text>
  <g font-size="9.5" fill="#f4cfd4">
    <text x="178" y="605">✓ Rate limiting distribuido (router-ai)</text>
    <text x="178" y="621">○ Cache de prompts — backend (futuro)</text>
    <text x="178" y="637">○ Cola de tareas — Celery (futuro)</text>
  </g>
  <text x="280" y="668" text-anchor="middle" fill="#9b6770" font-size="8.5">red interna · sin puerto al host · CLAUDE.md §11</text>

  <!-- ============ CONECTOR IN ============ -->
  <rect x="20" y="80" width="190" height="200" rx="10" fill="#1c1710" stroke="#e8a14b" stroke-width="1.5"/>
  <text x="115" y="106" text-anchor="middle" fill="#e8a14b" font-size="13" font-weight="bold" letter-spacing="1">CONECTOR IN</text>
  <text x="115" y="122" text-anchor="middle" fill="#a98c63" font-size="9">Puerta de entrada</text>
  <g font-size="9.5" fill="#ecd9bd" text-anchor="middle">
    <rect x="36" y="134" width="158" height="26" rx="5" fill="#241c12" stroke="#7a5c34" stroke-width="1"/>
    <text x="115" y="151">Webhooks corporativos</text>
    <rect x="36" y="168" width="158" height="26" rx="5" fill="#241c12" stroke="#7a5c34" stroke-width="1"/>
    <text x="115" y="185">Audio / Vídeo (ASR)</text>
    <rect x="36" y="202" width="158" height="26" rx="5" fill="#241c12" stroke="#7a5c34" stroke-width="1"/>
    <text x="115" y="219">APIs externas</text>
    <rect x="36" y="236" width="158" height="26" rx="5" fill="#241c12" stroke="#7a5c34" stroke-width="1"/>
    <text x="115" y="253">Sistemas internos</text>
  </g>
  <line x1="210" y1="180" x2="318" y2="180" stroke="#e8a14b" stroke-width="1.6" marker-end="url(#arrowOrange)"/>

  <!-- ============ CONECTOR OUT ============ -->
  <rect x="880" y="80" width="190" height="200" rx="10" fill="#1c1710" stroke="#e8a14b" stroke-width="1.5"/>
  <text x="975" y="106" text-anchor="middle" fill="#e8a14b" font-size="13" font-weight="bold" letter-spacing="1">CONECTOR OUT</text>
  <text x="975" y="122" text-anchor="middle" fill="#a98c63" font-size="9">Dispatcher asíncrono</text>
  <g font-size="9.5" fill="#ecd9bd" text-anchor="middle">
    <rect x="896" y="134" width="158" height="26" rx="5" fill="#241c12" stroke="#7a5c34" stroke-width="1"/>
    <text x="975" y="151">Arquitectura de plugins</text>
    <rect x="896" y="168" width="158" height="26" rx="5" fill="#241c12" stroke="#7a5c34" stroke-width="1"/>
    <text x="975" y="185">Workers en paralelo</text>
    <rect x="896" y="202" width="158" height="26" rx="5" fill="#241c12" stroke="#7a5c34" stroke-width="1"/>
    <text x="975" y="219">Aislamiento de fallos</text>
    <rect x="896" y="236" width="158" height="26" rx="5" fill="#241c12" stroke="#7a5c34" stroke-width="1"/>
    <text x="975" y="253">Reintentos automáticos</text>
  </g>
  <line x1="782" y1="180" x2="878" y2="180" stroke="#e8a14b" stroke-width="1.6" marker-end="url(#arrowOrange)"/>

  <!-- DESTINOS -->
  <rect x="1086" y="80" width="62" height="290" rx="8" fill="#10202f" stroke="#2e4d6b" stroke-width="1.1"/>
  <text x="1117" y="100" text-anchor="middle" fill="#8fa6bd" font-size="8.5" font-weight="bold">DESTINOS</text>
  <g font-size="7.5" fill="#cfe0ef" text-anchor="middle">
    <rect x="1092" y="110" width="50" height="22" rx="4" fill="#0f2036" stroke="#33567c" stroke-width="0.8"/>
    <text x="1117" y="124">Confluence</text>
    <rect x="1092" y="140" width="50" height="22" rx="4" fill="#0f2036" stroke="#33567c" stroke-width="0.8"/>
    <text x="1117" y="154">SharePoint</text>
    <rect x="1092" y="170" width="50" height="22" rx="4" fill="#0f2036" stroke="#33567c" stroke-width="0.8"/>
    <text x="1117" y="184">Slack</text>
    <rect x="1092" y="200" width="50" height="22" rx="4" fill="#0f2036" stroke="#33567c" stroke-width="0.8"/>
    <text x="1117" y="214">Zapier</text>
    <rect x="1092" y="230" width="50" height="22" rx="4" fill="#0f2036" stroke="#33567c" stroke-width="0.8"/>
    <text x="1117" y="244">API ad-hoc</text>
    <rect x="1092" y="260" width="50" height="22" rx="4" fill="#0f2036" stroke="#33567c" stroke-width="0.8"/>
    <text x="1117" y="274">BD externa</text>
  </g>
  <line x1="1070" y1="180" x2="1084" y2="180" stroke="#e8a14b" stroke-width="1.4" marker-end="url(#arrowOrange)"/>

  <!-- ============ CAPA MODELOS ============ -->
  <rect x="430" y="542" width="300" height="112" rx="10" fill="#0f1f33" stroke="#23496e" stroke-width="1.3"/>
  <text x="580" y="566" text-anchor="middle" fill="#cfe0ef" font-size="11.5" font-weight="bold">CAPA DE MODELOS · LLM + ASR</text>
  <g font-size="9.5" fill="#cfe0ef" text-anchor="middle">
    <rect x="446" y="578" width="84" height="24" rx="5" fill="#0f2036" stroke="#33567c" stroke-width="1"/>
    <text x="488" y="594">OpenAI</text>
    <rect x="538" y="578" width="84" height="24" rx="5" fill="#0f2036" stroke="#33567c" stroke-width="1"/>
    <text x="580" y="594">Anthropic</text>
    <rect x="630" y="578" width="84" height="24" rx="5" fill="#0f2036" stroke="#33567c" stroke-width="1"/>
    <text x="672" y="594">Google</text>
    <rect x="446" y="612" width="84" height="24" rx="5" fill="#0f2036" stroke="#33567c" stroke-width="1"/>
    <text x="488" y="628">Ollama (local)</text>
    <rect x="538" y="612" width="84" height="24" rx="5" fill="#0f2036" stroke="#33567c" stroke-width="1"/>
    <text x="580" y="628">DeepSeek</text>
    <rect x="630" y="612" width="84" height="24" rx="5" fill="#0f2036" stroke="#33567c" stroke-width="1"/>
    <text x="672" y="628">LM Studio</text>
  </g>

  <!-- ============ CAPA DATOS ============ -->
  <rect x="760" y="542" width="300" height="112" rx="10" fill="#0f1f33" stroke="#23496e" stroke-width="1.3"/>
  <text x="910" y="566" text-anchor="middle" fill="#cfe0ef" font-size="11.5" font-weight="bold">CAPA DE DATOS · DBMS</text>
  <g font-size="9.5" fill="#cfe0ef" text-anchor="middle">
    <rect x="776" y="578" width="84" height="24" rx="5" fill="#0f2036" stroke="#33567c" stroke-width="1"/>
    <text x="818" y="594">Oracle</text>
    <rect x="868" y="578" width="84" height="24" rx="5" fill="#0f2036" stroke="#33567c" stroke-width="1"/>
    <text x="910" y="594">PostgreSQL</text>
    <rect x="960" y="578" width="84" height="24" rx="5" fill="#0f2036" stroke="#33567c" stroke-width="1"/>
    <text x="1002" y="594">SQL Server</text>
    <rect x="776" y="612" width="84" height="24" rx="5" fill="#0f2036" stroke="#33567c" stroke-width="1"/>
    <text x="818" y="628">MySQL</text>
    <rect x="868" y="612" width="84" height="24" rx="5" fill="#0f2036" stroke="#33567c" stroke-width="1"/>
    <text x="910" y="628">MariaDB</text>
    <rect x="960" y="612" width="84" height="24" rx="5" fill="#0f2036" stroke="#33567c" stroke-width="1"/>
    <text x="1002" y="628">MongoDB</text>
  </g>

  <!-- redirect dal arrow to datos box -->
  <!-- (la línea de 650 baja hasta y=540, la caja datos empieza x=760; conector visual) -->

  <!-- ============ INFRA TRANSVERSAL ============ -->
  <rect x="20" y="688" width="1128" height="92" rx="10" fill="#0d1a2b" stroke="#23496e" stroke-width="1.2"/>
  <text x="40" y="714" fill="#8fa6bd" font-size="10" font-weight="bold" letter-spacing="1">INFRAESTRUCTURA</text>
  <text x="40" y="728" fill="#8fa6bd" font-size="10" font-weight="bold" letter-spacing="1">TRANSVERSAL</text>
  <g font-size="9.5" text-anchor="middle">
    <rect x="190" y="706" width="266" height="30" rx="6" fill="#2a1420" stroke="#ff6b6b" stroke-width="1.4"/>
    <text x="323" y="725" fill="#ffb3b3" font-weight="bold">Redis · rate limit distribuido ✓ · cache/colas (futuro)</text>
    <rect x="472" y="706" width="130" height="30" rx="6" fill="#0f2036" stroke="#33567c" stroke-width="1"/>
    <text x="537" y="725" fill="#cfe0ef" font-size="8.5">Celery · workers async</text>
    <rect x="618" y="706" width="186" height="30" rx="6" fill="#0f2036" stroke="#33567c" stroke-width="1"/>
    <text x="711" y="725" fill="#cfe0ef">S3 / MinIO · object storage</text>
    <rect x="820" y="706" width="146" height="30" rx="6" fill="#0f2036" stroke="#33567c" stroke-width="1"/>
    <text x="893" y="725" fill="#cfe0ef">Logs JSON · ELK</text>
    <rect x="982" y="706" width="156" height="30" rx="6" fill="#0f2036" stroke="#33567c" stroke-width="1"/>
    <text x="1060" y="725" fill="#cfe0ef">trace_id · auditoría E2E</text>
  </g>
  <text x="584" y="764" text-anchor="middle" fill="#5d7590" font-size="9">v3 · Junio 2026 — Redis desplegado como primer servicio de infraestructura transversal; consumidor inicial: router-ai (rate limiting distribuido, fail-open)</text>
</svg>
